<svg width="16" height="15" viewBox="0 0 16 15" fill="none" xmlns="http://www.w3.org/2000/svg">
<path d="M7.42617 1.95482C7.6433 1.45166 8.35674 1.45166 8.57387 1.95482L9.93639 5.11225C10.0283 5.3253 10.2307 5.46988 10.4621 5.48776L13.9562 5.75776C14.5169 5.80107 14.7396 6.50486 14.306 6.86286L11.6783 9.0324C11.4929 9.18543 11.4118 9.43119 11.4695 9.66451L12.2782 12.9322C12.4112 13.4696 11.8315 13.9018 11.3544 13.621L8.3171 11.8329C8.12141 11.7177 7.87863 11.7177 7.68294 11.8329L4.64561 13.621C4.16855 13.9018 3.58884 13.4696 3.72183 12.9322L4.53055 9.66451C4.58829 9.43119 4.50712 9.18543 4.32177 9.0324L1.69403 6.86286C1.26043 6.50486 1.48318 5.80107 2.0438 5.75776L5.53796 5.48776C5.76931 5.46988 5.97172 5.3253 6.06365 5.11225L7.42617 1.95482Z" fill="#353945"/>
</svg>
